<svg width="39" height="37" viewBox="0 0 39 37" fill="none" xmlns="http://www.w3.org/2000/svg">
<path d="M17.8798 2.1077C18.4398 0.630766 20.5589 0.630766 21.1206 2.1077L24.743 12.1418C24.9967 12.8067 25.6424 13.2495 26.3634 13.2495H35.2653C36.9102 13.2495 37.6277 15.2969 36.3345 16.2996L29.9997 21.9991C29.716 22.2172 29.5086 22.5196 29.4074 22.8629C29.3062 23.2062 29.3163 23.5728 29.4363 23.91L31.7497 33.7148C32.3131 35.2897 30.4897 36.6424 29.1108 35.673L20.5064 30.2132C20.2118 30.0061 19.8604 29.895 19.5002 29.895C19.1401 29.895 18.7887 30.0061 18.494 30.2132L9.88964 35.673C8.51245 36.6424 6.68728 35.288 7.25076 33.7148L9.56415 23.91C9.68416 23.5728 9.69427 23.2062 9.59304 22.8629C9.49181 22.5196 9.28444 22.2172 9.00068 21.9991L2.66596 16.2996C1.37102 15.2969 2.09198 13.2495 3.73341 13.2495H12.6353C12.9858 13.2506 13.3284 13.1453 13.6177 12.9475C13.9071 12.7497 14.1295 12.4688 14.2557 12.1418L17.878 2.1077H17.8798Z" stroke="white" stroke-width="2" stroke-linecap="round" stroke-linejoin="round"/>
</svg>
